:SAMPLES-PER-SECOND 30
:FULLY-SPECIFIED
:DEGREES
497
root  -39.5477 35.4655 -58.821 17.444 -84.9222 0.112936
RightUpLeg  -17.2858 -0.98688 -2.79387
RightLeg  17.123 10.7837 2.56216
RightFoot  14.8917 -0.339039 2.97118
RightToes  -59.3708 -0.388616 -0.396564
Spine  10.0505 1.11612 0.860311
Spine1  19.6002 2.42582 1.19858
HEad  31.7499 -20.1942 13.5406
LeftShoulder1  0 -2.42657e-020 -4.95415e-022
LeftArm  -29.3356 7.36329 -87.8233
LeftForeArm  -162.165 -31.3294 -5.70327
LeftHand  11.775 -25.8511 -48.7717
RightShoulder  0 2.42657e-020 1.07489e-018
RightArm  -16.8561 -14.9683 87.109
RightForeArm  59.9044 61.3111 18.8381
RightHand  -4.38245 13.0224 -36.7141
LeftUpLeg  -36.5937 -3.65852 -3.23172
LeftLeg  35.1127 -16.0291 -9.5828
LeftFoot  17.0619 0.825477 -5.49895
LeftToes  -25.707 1.18758e-006 1.19596e-007
498
root  -40.9708 35.0659 -57.565 -3.79248 -83.801 21.3488
RightUpLeg  -15.0003 0.857786 -4.62851
RightLeg  19.6977 -0.113795 -0.0338552
RightFoot  9.31088 0.0228567 0.0968585
RightToes  -52.0539 -0.321202 -0.372621
Spine  10.484 0.940498 0.67368
Spine1  20.3292 2.16334 0.751766
HEad  32.054 -18.0741 12.2111
LeftShoulder1  0 -2.42657e-020 -4.95415e-022
LeftArm  -27.5552 6.1056 -86.2579
LeftForeArm  -163.126 -31.2245 -5.67858
LeftHand  11.8088 -25.8525 -48.893
RightShoulder  0 2.42657e-020 1.07489e-018
RightArm  -11.5002 -13.8333 84.8614
RightForeArm  77.6603 65.9238 23.2519
RightHand  -5.3532 12.6512 -45.3834
LeftUpLeg  -38.8591 0.0785858 -5.87594
LeftLeg  40.1011 -11.5029 -8.37491
LeftFoot  11.3607 0.262878 -2.64242
LeftToes  -28.2993 1.18758e-006 1.19596e-007
499
root  -42.3934 34.4584 -56.3473 -10.1099 -81.9738 27.9346
RightUpLeg  -12.128 -0.635846 -6.58924
RightLeg  19.9029 -4.235 -1.23136
RightFoot  5.46797 0.0302663 -0.256217
RightToes  -55.1987 -0.349799 -0.383966
Spine  10.2381 0.793986 0.620338
Spine1  19.6939 1.98326 0.626502
HEad  34.2149 -15.7192 10.4481
LeftShoulder1  0 -2.42657e-020 -4.95415e-022
LeftArm  -26.2417 5.3394 -85.0036
LeftForeArm  -163.645 -30.5665 -5.52321
LeftHand  11.687 -26.033 -48.14
RightShoulder  0 2.42657e-020 1.07489e-018
RightArm  -5.77361 -10.9855 82.171
RightForeArm  88.6842 64.6966 21.821
RightHand  -6.5123 13.9931 -49.3926
LeftUpLeg  -40.4784 5.14796 -8.37912
LeftLeg  35.816 -6.67448 -4.18014
LeftFoot  5.85464 0.0290251 -0.567613
LeftToes  -22.524 1.18758e-006 1.19596e-007
500
root  -43.9297 33.8102 -55.1593 -3.00134 -80.3221 21.5554
RightUpLeg  -9.22305 -0.970195 -7.59176
RightLeg  19.6623 -4.99537 -1.42872
RightFoot  3.24137 0.0132523 -0.0908087
RightToes  -58.1792 -0.377437 -0.393255
Spine  9.99803 1.03851 1.38057
Spine1  19.1859 2.44416 2.21516
HEad  33.8883 -14.2835 8.45261
LeftShoulder1  0 -2.42657e-020 -4.95415e-022
LeftArm  -25.6165 3.47497 -85.962
LeftForeArm  -162.318 -29.1727 -5.20018
LeftHand  11.6614 -26.2376 -47.7041
RightShoulder  0 2.42657e-020 1.07489e-018
RightArm  -2.8928 -6.67149 79.4287
RightForeArm  95.7984 61.1686 18.5319
RightHand  -7.70183 13.3827 -59.344
LeftUpLeg  -42.6463 9.02483 -10.0159
LeftLeg  27.3624 -2.6396 -1.1604
LeftFoot  1.19888 -0.00180508 0.172518
LeftToes  -18.7918 1.18758e-006 1.19596e-007
501
root  -45.4982 33.1578 -53.9815 4.76416 -78.7125 14.2797
RightUpLeg  -6.5737 -1.90229 -8.1113
RightLeg  20.2646 -4.28294 -1.27477
RightFoot  2.56145 0.0066011 0.0822628
RightToes  -62.5991 -0.419222 -0.404355
Spine  9.85678 1.35836 2.21293
Spine1  18.9841 3.39241 3.35453
HEad  33.641 -13.4224 7.6647
LeftShoulder1  0 -2.42657e-020 -4.95415e-022
LeftArm  -25.7784 2.16097 -87.4737
LeftForeArm  -161.567 -28.7497 -5.10386
LeftHand  11.7917 -25.8059 -48.9104
RightShoulder  0 2.42657e-020 1.07489e-018
RightArm  -2.00426 0.342242 77.9959
RightForeArm  94.8572 50.0641 11.991
RightHand  -8.3888 13.8835 -61.7781
LeftUpLeg  -46.5369 11.5512 -11.8243
LeftLeg  22.783 -0.406451 -0.143477
LeftFoot  0.549515 -0.0013226 0.275795
LeftToes  -16.1184 1.18758e-006 1.19596e-007
502
root  -47.2337 32.2342 -52.7204 8.66638 -76.4378 10.3258
RightUpLeg  -4.5383 -2.87854 -9.10826
RightLeg  24.3711 -3.02237 -1.14424
RightFoot  1.31186 -0.00106193 0.470055
RightToes  -68.2224 -0.473406 -0.413767
Spine  10.4991 2.38132 3.04588
Spine1  20.3461 6.70154 2.98186
HEad  33.4373 -14.4128 7.87322
LeftShoulder1  0 -2.42657e-020 -4.95415e-022
LeftArm  -24.4038 -0.687199 -89.0577
LeftForeArm  -162.499 -29.0202 -5.16548
LeftHand  11.8027 -25.1586 -50.0893
RightShoulder  0 2.42657e-020 1.07489e-018
RightArm  -6.34766 7.7643 77.6563
RightForeArm  88.9192 37.1919 7.54626
RightHand  -8.96222 17.3343 -54.0643
LeftUpLeg  -51.6782 13.2107 -15.1136
LeftLeg  25.0898 0.328286 0.125678
LeftFoot  -1.14904 0.00486467 0.485113
LeftToes  -19.4142 1.18758e-006 1.19596e-007
503
root  -49.1591 31.2598 -51.3093 6.83484 -75.4686 11.4567
RightUpLeg  -2.61636 -1.28647 -11.0474
RightLeg  30.0402 -2.59771 -1.29494
RightFoot  1.5909 -0.00538727 0.765229
RightToes  -75.8646 -0.548001 -0.417967
Spine  11.3264 3.70742 3.21168
Spine1  21.902 10.6149 1.77418
HEad  35.8176 -16.2812 8.33756
LeftShoulder1  0 -2.42657e-020 -4.95415e-022
LeftArm  -21.1407 -3.04259 -89.7563
LeftForeArm  -162.266 -30.5906 -5.52843
LeftHand  11.7545 -25.3303 -49.6039
RightShoulder  0 2.42657e-020 1.07489e-018
RightArm  -17.6209 15.3036 78.5174
RightForeArm  82.1184 24.1595 4.42258
RightHand  -7.98384 21.7632 -39.5439
LeftUpLeg  -54.0628 12.3388 -16.4314
LeftLeg  31.3376 0.484114 0.249772
LeftFoot  -1.04562 0.00671392 0.735752
LeftToes  -13.942 1.18758e-006 1.19596e-007
